<svg width="368" height="430" viewBox="0 0 368 430" fill="none" xmlns="http://www.w3.org/2000/svg">
<g clip-path="url(#clip0_48_57)">
<path d="M368 245.472C368 143.984 285.62 61.7111 184 61.7111C82.3796 61.7111 0 143.984 0 245.472C0 346.96 82.3796 429.232 184 429.232C285.62 429.232 368 346.96 368 245.472Z" fill="#B5D7FF"/>
<path d="M215.28 76.4119H196.88C117.616 76.4119 53.36 140.584 53.36 219.745C53.36 298.906 117.616 363.079 196.88 363.079H215.28C294.544 363.079 358.8 298.906 358.8 219.745C358.8 140.584 294.544 76.4119 215.28 76.4119Z" fill="#3FB7FB"/>
<mask id="mask0_48_57" style="mask-type:luminance" maskUnits="userSpaceOnUse" x="121" y="140" width="172" height="172">
<path d="M292.56 226.177C292.56 178.985 254.253 140.728 207 140.728C159.746 140.728 121.44 178.985 121.44 226.177C121.44 273.369 159.746 311.626 207 311.626C254.253 311.626 292.56 273.369 292.56 226.177Z" fill="white"/>
</mask>
<g mask="url(#mask0_48_57)">
<path d="M292.56 226.177C292.56 178.985 254.253 140.728 207 140.728C159.746 140.728 121.44 178.985 121.44 226.177C121.44 273.369 159.746 311.626 207 311.626C254.253 311.626 292.56 273.369 292.56 226.177Z" fill="#045AFE"/>
<path d="M295.734 230.77C295.734 218.705 293.355 206.756 288.731 195.61C284.107 184.463 277.33 174.334 268.787 165.802C260.246 157.27 250.104 150.502 238.94 145.884C227.779 141.267 215.815 138.891 203.734 138.891C191.653 138.891 179.689 141.267 168.527 145.884C157.365 150.502 147.223 157.27 138.68 165.802C130.137 174.334 123.361 184.463 118.737 195.61C114.114 206.756 111.734 218.705 111.734 230.77H153.305C153.305 224.157 154.609 217.608 157.144 211.498C159.678 205.387 163.392 199.834 168.075 195.158C172.758 190.481 178.317 186.773 184.436 184.24C190.554 181.71 197.112 180.407 203.734 180.407C210.356 180.407 216.914 181.71 223.032 184.24C229.152 186.773 234.71 190.481 239.393 195.158C244.076 199.834 247.791 205.387 250.325 211.498C252.858 217.608 254.163 224.157 254.163 230.77H295.734Z" fill="url(#paint0_linear_48_57)"/>
</g>
<path d="M344.814 156.175C364.723 191.934 372.112 233.306 365.81 273.735C359.508 314.165 339.877 351.336 310.029 379.361C280.179 407.385 241.816 424.658 201.024 428.444C160.232 432.229 119.34 422.311 84.8313 400.258L122.152 342.008C143.674 355.761 169.176 361.946 194.617 359.587C220.058 357.225 243.984 346.451 262.599 328.974C281.216 311.496 293.46 288.313 297.39 263.099C301.32 237.886 296.711 212.082 284.295 189.781L344.814 156.175Z" fill="url(#paint1_linear_48_57)"/>
<path d="M258.748 160.326C272.39 171.056 283.194 185.541 290.061 202.313C296.928 219.085 299.615 237.546 297.848 255.819C296.08 274.092 289.923 291.531 280 306.36C270.075 321.19 256.741 332.886 241.347 340.259L222.062 298.67C230.453 294.651 239.621 286.468 245.031 278.385C250.439 270.301 254.742 256.881 255.707 246.921C256.669 236.959 254.95 225.928 251.206 216.786C247.463 207.644 229.498 177.951 222.062 172.103L258.748 160.326Z" fill="url(#paint2_linear_48_57)"/>
<path d="M241.347 340.259L222.062 298.67L220.498 299.89L216.686 301.112L211.526 302.209L207.131 303.306H201.574H197.06H192.545H188.306L181.856 302.209L175.407 301.112L168.844 299.306L162.282 297.499L151.126 290.722L149.607 294.162L170.984 334.025L219.265 351.578L240.643 340.259H241.347Z" fill="url(#paint3_linear_48_57)"/>
<path d="M327.905 69.7533C317.564 81.2509 289.43 98.259 274.692 85.0395C259.953 71.8199 271.361 38.7147 284.598 23.9962C297.835 9.27758 323.836 -7.40095 338.575 5.81861C353.311 19.0381 341.142 55.0348 327.905 69.7533Z" fill="url(#paint4_linear_48_57)"/>
</g>
<defs>
<linearGradient id="paint0_linear_48_57" x1="131.91" y1="196.074" x2="253.776" y2="201.211" gradientUnits="userSpaceOnUse">
<stop offset="0.208333" stop-color="#045AFE"/>
<stop offset="0.822917" stop-color="#4078E5"/>
</linearGradient>
<linearGradient id="paint1_linear_48_57" x1="184" y1="61.7111" x2="184" y2="429.232" gradientUnits="userSpaceOnUse">
<stop offset="0.442708" stop-color="#3FB7FB"/>
<stop offset="0.817708" stop-color="#B5D7FF"/>
</linearGradient>
<linearGradient id="paint2_linear_48_57" x1="248.531" y1="296.073" x2="245.013" y2="177.358" gradientUnits="userSpaceOnUse">
<stop stop-color="#3FB7FB"/>
<stop offset="0.52904" stop-color="#1874FE"/>
<stop offset="1" stop-color="#3F77E4"/>
</linearGradient>
<linearGradient id="paint3_linear_48_57" x1="248.531" y1="296.073" x2="245.013" y2="177.358" gradientUnits="userSpaceOnUse">
<stop stop-color="#3FB7FB"/>
<stop offset="0.52904" stop-color="#1874FE"/>
<stop offset="1" stop-color="#3F77E4"/>
</linearGradient>
<linearGradient id="paint4_linear_48_57" x1="322.626" y1="31.7388" x2="274.761" y2="85.1014" gradientUnits="userSpaceOnUse">
<stop stop-color="#3CE335"/>
<stop offset="1" stop-color="#94C5FF"/>
</linearGradient>
<clipPath id="clip0_48_57">
<rect width="368" height="430" fill="white"/>
</clipPath>
</defs>
</svg>
