<svg width="35" height="35" viewBox="0 0 35 35" fill="none" xmlns="http://www.w3.org/2000/svg">
<g id="FoodIcons">
<path id="Vector" d="M11.9797 3.81641C11.9797 2.9332 12.708 2.22266 13.6133 2.22266H14.7023C15.6076 2.22266 16.3359 2.9332 16.3359 3.81641C16.3359 4.69961 15.6076 5.41016 14.7023 5.41016H13.6133C12.708 5.41016 11.9797 4.69961 11.9797 3.81641ZM13.6133 7.00391H14.7023C15.6076 7.00391 16.3359 7.71445 16.3359 8.59766C16.3359 9.48086 15.6076 10.1914 14.7023 10.1914H13.6133C12.708 10.1914 11.9797 9.48086 11.9797 8.59766C11.9797 7.71445 12.708 7.00391 13.6133 7.00391ZM3.81172 11.7852H4.90078C5.80606 11.7852 6.53437 12.4957 6.53437 13.3789C6.53437 14.2621 5.80606 14.9727 4.90078 14.9727H3.81172C2.90644 14.9727 2.17812 14.2621 2.17812 13.3789C2.17812 12.4957 2.90644 11.7852 3.81172 11.7852ZM0 18.9172C0 17.9145 0.837217 17.0977 1.86502 17.0977H32.985C34.0128 17.0977 34.85 17.9145 34.85 18.9172C34.85 23.5988 31.8278 27.5965 27.5873 29.1504L27.4648 30.1133C27.3287 31.1758 26.403 31.9727 25.3003 31.9727H9.54291C8.44704 31.9727 7.51453 31.1758 7.3784 30.1133L7.25588 29.157C3.02215 27.5965 0 23.5988 0 18.9172ZM15.2469 13.3789C15.2469 12.4957 15.9752 11.7852 16.8805 11.7852H17.9695C18.8748 11.7852 19.6031 12.4957 19.6031 13.3789C19.6031 14.2621 18.8748 14.9727 17.9695 14.9727H16.8805C15.9752 14.9727 15.2469 14.2621 15.2469 13.3789ZM8.7125 13.3789C8.7125 12.4957 9.44081 11.7852 10.3461 11.7852H11.4352C12.3404 11.7852 13.0687 12.4957 13.0687 13.3789C13.0687 14.2621 12.3404 14.9727 11.4352 14.9727H10.3461C9.44081 14.9727 8.7125 14.2621 8.7125 13.3789ZM7.07891 7.00391H8.16797C9.07325 7.00391 9.80156 7.71445 9.80156 8.59766C9.80156 9.48086 9.07325 10.1914 8.16797 10.1914H7.07891C6.17362 10.1914 5.44531 9.48086 5.44531 8.59766C5.44531 7.71445 6.17362 7.00391 7.07891 7.00391ZM21.7812 13.3789C21.7812 12.4957 22.5096 11.7852 23.4148 11.7852H24.5039C25.4092 11.7852 26.1375 12.4957 26.1375 13.3789C26.1375 14.2621 25.4092 14.9727 24.5039 14.9727H23.4148C22.5096 14.9727 21.7812 14.2621 21.7812 13.3789ZM20.1477 7.00391H21.2367C22.142 7.00391 22.8703 7.71445 22.8703 8.59766C22.8703 9.48086 22.142 10.1914 21.2367 10.1914H20.1477C19.2424 10.1914 18.5141 9.48086 18.5141 8.59766C18.5141 7.71445 19.2424 7.00391 20.1477 7.00391ZM28.3156 13.3789C28.3156 12.4957 29.0439 11.7852 29.9492 11.7852H31.0383C31.9436 11.7852 32.6719 12.4957 32.6719 13.3789C32.6719 14.2621 31.9436 14.9727 31.0383 14.9727H29.9492C29.0439 14.9727 28.3156 14.2621 28.3156 13.3789ZM26.682 7.00391H27.7711C28.6764 7.00391 29.4047 7.71445 29.4047 8.59766C29.4047 9.48086 28.6764 10.1914 27.7711 10.1914H26.682C25.7767 10.1914 25.0484 9.48086 25.0484 8.59766C25.0484 7.71445 25.7767 7.00391 26.682 7.00391ZM20.1477 2.22266H21.2367C22.142 2.22266 22.8703 2.9332 22.8703 3.81641C22.8703 4.69961 22.142 5.41016 21.2367 5.41016H20.1477C19.2424 5.41016 18.5141 4.69961 18.5141 3.81641C18.5141 2.9332 19.2424 2.22266 20.1477 2.22266Z" fill="white"/>
</g>
</svg>
