<svg width="48" height="48" viewBox="0 0 48 48" fill="none" xmlns="http://www.w3.org/2000/svg">
<g id="BackButton" filter="url(#filter0_d_131_2867)">
<rect x="4" y="2" width="40" height="40" rx="20" fill="white" fill-opacity="0.8" shape-rendering="crispEdges"/>
<rect x="4.5" y="2.5" width="39" height="39" rx="19.5" stroke="#D5D5D5" shape-rendering="crispEdges"/>
<path id="Arrow 2" d="M19.2929 20.2929C18.9024 20.6834 18.9024 21.3166 19.2929 21.7071L25.6569 28.0711C26.0474 28.4616 26.6805 28.4616 27.0711 28.0711C27.4616 27.6805 27.4616 27.0474 27.0711 26.6569L21.4142 21L27.0711 15.3431C27.4616 14.9526 27.4616 14.3195 27.0711 13.9289C26.6805 13.5384 26.0474 13.5384 25.6569 13.9289L19.2929 20.2929ZM21 20H20V22H21V20Z" fill="#848484"/>
</g>
<defs>
<filter id="filter0_d_131_2867" x="0" y="0" width="48" height="48" filterUnits="userSpaceOnUse" color-interpolation-filters="sRGB">
<feFlood flood-opacity="0" result="BackgroundImageFix"/>
<feColorMatrix in="SourceAlpha" type="matrix" values="0 0 0 0 0 0 0 0 0 0 0 0 0 0 0 0 0 0 127 0" result="hardAlpha"/>
<feOffset dy="2"/>
<feGaussianBlur stdDeviation="2"/>
<feComposite in2="hardAlpha" operator="out"/>
<feColorMatrix type="matrix" values="0 0 0 0 0 0 0 0 0 0 0 0 0 0 0 0 0 0 0.1 0"/>
<feBlend mode="normal" in2="BackgroundImageFix" result="effect1_dropShadow_131_2867"/>
<feBlend mode="normal" in="SourceGraphic" in2="effect1_dropShadow_131_2867" result="shape"/>
</filter>
</defs>
</svg>
