<svg width="24" height="25" viewBox="0 0 24 25" fill="none" xmlns="http://www.w3.org/2000/svg">
<g id="heroicons-mini/bell">
<path id="Union" fill-rule="evenodd" clip-rule="evenodd" d="M12.0002 2.8999C8.0237 2.8999 4.80015 6.12345 4.80015 10.0999C4.80015 12.3639 4.25568 14.498 3.29132 16.3811C3.16329 16.6311 3.15932 16.9265 3.28057 17.1799C3.40183 17.4332 3.63441 17.6154 3.90942 17.6725C5.19064 17.9385 6.49437 18.1426 7.81731 18.2815C8.01013 20.4223 9.80925 22.0999 12.0002 22.0999C14.1911 22.0999 15.9903 20.4223 16.1831 18.2815C17.506 18.1426 18.8097 17.9385 20.0909 17.6725C20.3659 17.6154 20.5985 17.4332 20.7197 17.1799C20.841 16.9265 20.837 16.6311 20.709 16.3811C19.7446 14.498 19.2002 12.3639 19.2002 10.0999C19.2002 6.12345 15.9766 2.8999 12.0002 2.8999ZM9.65935 18.4318C10.4339 18.477 11.2144 18.4999 12.0002 18.4999C12.7859 18.4999 13.5664 18.477 14.341 18.4318C14.099 19.5013 13.1429 20.2999 12.0002 20.2999C10.8575 20.2999 9.90136 19.5013 9.65935 18.4318Z" fill="#0161FE"/>
</g>
</svg>
