<svg width="24" height="25" viewBox="0 0 24 25" fill="none" xmlns="http://www.w3.org/2000/svg">
<g id="heroicons-solid/squares-2x2">
<path id="Vector (Stroke)" fill-rule="evenodd" clip-rule="evenodd" d="M3 6.5C3 4.84315 4.34315 3.5 6 3.5H8.25C9.90685 3.5 11.25 4.84315 11.25 6.5V8.75C11.25 10.4069 9.90685 11.75 8.25 11.75H6C4.34315 11.75 3 10.4069 3 8.75V6.5ZM12.75 6.5C12.75 4.84315 14.0931 3.5 15.75 3.5H18C19.6569 3.5 21 4.84315 21 6.5V8.75C21 10.4069 19.6569 11.75 18 11.75H15.75C14.0931 11.75 12.75 10.4069 12.75 8.75V6.5ZM3 16.25C3 14.5931 4.34315 13.25 6 13.25H8.25C9.90685 13.25 11.25 14.5931 11.25 16.25V18.5C11.25 20.1569 9.90685 21.5 8.25 21.5H6C4.34315 21.5 3 20.1569 3 18.5V16.25ZM12.75 16.25C12.75 14.5931 14.0931 13.25 15.75 13.25H18C19.6569 13.25 21 14.5931 21 16.25V18.5C21 20.1569 19.6569 21.5 18 21.5H15.75C14.0931 21.5 12.75 20.1569 12.75 18.5V16.25Z" fill="white"/>
</g>
</svg>
