<svg width="34" height="35" viewBox="0 0 34 35" fill="none" xmlns="http://www.w3.org/2000/svg">
<g id="FoodIcons">
<path id="Vector" d="M23.023 0.496094C22.4187 1.22656 21.25 2.90664 21.25 4.87891C21.25 7.53516 22.266 8.55117 23.9062 10.1914C25.5465 11.8316 26.5625 12.8477 29.2187 12.8477C31.191 12.8477 32.8711 11.6789 33.6015 11.0746C33.8672 10.8555 34 10.5301 34 10.1914C34 9.85273 33.8672 9.52734 33.6015 9.31484C32.8445 8.71055 31.0582 7.53516 28.6875 7.53516C26.5625 7.53516 26.0312 8.06641 26.0312 8.06641C26.0312 8.06641 26.5625 7.53516 26.5625 5.41016C26.5625 3.03945 25.3871 1.25312 24.7828 0.496094C24.5703 0.230469 24.2449 0.0976562 23.9062 0.0976562C23.5676 0.0976562 23.2422 0.230469 23.023 0.496094ZM16.243 9.12891C13.5867 9.12891 11.123 10.3309 9.48943 12.3297L13.507 16.3473C13.9187 16.759 13.9187 17.4363 13.507 17.848C13.0953 18.2598 12.418 18.2598 12.0062 17.848L8.33397 14.1758V14.1824L0.146073 31.8332C-0.132833 32.4375 -0.00666089 33.1547 0.464824 33.6328C0.936308 34.1109 1.6535 34.2305 2.26443 33.9516L11.2094 29.8078L7.74959 26.348C7.33787 25.9363 7.33787 25.259 7.74959 24.8473C8.16131 24.4355 8.83865 24.4355 9.25037 24.8473L13.2613 28.8516L19.9152 25.7703C22.9965 24.3426 24.9754 21.2547 24.9754 17.8547C24.9687 13.0336 21.064 9.12891 16.243 9.12891Z" fill="#00AEE0"/>
</g>
</svg>
