<svg width="34" height="35" viewBox="0 0 34 35" fill="none" xmlns="http://www.w3.org/2000/svg">
<g id="FoodIcons">
<path id="Vector" d="M4.25 2.22266C1.90586 2.22266 0 4.12852 0 6.47266C0 8.8168 1.90586 10.7227 4.25 10.7227H4.31641C4.56211 16.6262 9.42969 21.3477 15.4062 21.3477H19.125V8.59766H17.5312H5.89688H4.25C3.07461 8.59766 2.125 7.64805 2.125 6.47266C2.125 5.29727 3.07461 4.34766 4.25 4.34766H30.8125C31.3969 4.34766 31.875 3.86953 31.875 3.28516C31.875 2.70078 31.3969 2.22266 30.8125 2.22266H4.25ZM14.875 30.3789C14.875 31.2621 15.5855 31.9727 16.4688 31.9727H21.25V27.1781L16.9934 25.6906C16.1633 25.3984 15.2535 25.8367 14.9613 26.6668C14.6691 27.4969 15.1074 28.4066 15.9375 28.6988L16.2363 28.8051C15.4727 28.9113 14.875 29.5754 14.875 30.3789ZM23.375 31.9262C25.7922 31.707 27.9902 30.7574 29.7566 29.2965L24.0125 26.9988C23.8133 27.1184 23.6008 27.2113 23.375 27.2844V31.9262ZM31.3836 27.6562C33.0172 25.6441 34 23.0809 34 20.2852C34 19.4684 33.9137 18.6715 33.7543 17.9012L25.4203 23.6785C25.4734 23.9043 25.5 24.1434 25.5 24.3824C25.5 24.6879 25.4535 24.9801 25.3738 25.2523L31.3836 27.6562ZM22.3125 8.59766H21.25V21.3477H22.4652C23.1227 21.3477 23.7336 21.5602 24.2316 21.9121L33.0969 15.7762C31.3305 11.5594 27.1668 8.59766 22.3125 8.59766ZM11.1562 12.8477C11.1562 12.425 11.3242 12.0196 11.623 11.7207C11.9219 11.4218 12.3273 11.2539 12.75 11.2539C13.1727 11.2539 13.5781 11.4218 13.877 11.7207C14.1758 12.0196 14.3438 12.425 14.3438 12.8477C14.3438 13.2703 14.1758 13.6757 13.877 13.9746C13.5781 14.2735 13.1727 14.4414 12.75 14.4414C12.3273 14.4414 11.9219 14.2735 11.623 13.9746C11.3242 13.6757 11.1562 13.2703 11.1562 12.8477Z" fill="#00AEE0"/>
</g>
</svg>
