<svg width="34" height="35" viewBox="0 0 34 35" fill="none" xmlns="http://www.w3.org/2000/svg">
<path id="Vector" d="M34 2.22266C34 9.76641 28.382 16.002 21.1039 16.9648C20.6324 13.4187 19.0719 10.218 16.7676 7.71445C19.3109 3.17227 24.1719 0.0976562 29.75 0.0976562H31.875C33.0504 0.0976562 34 1.04727 34 2.22266ZM0 6.47266C0 5.29727 0.949609 4.34766 2.125 4.34766H4.25C12.4645 4.34766 19.125 11.0082 19.125 19.2227V21.3477V31.9727C19.125 33.148 18.1754 34.0977 17 34.0977C15.8246 34.0977 14.875 33.148 14.875 31.9727V21.3477C6.66055 21.3477 0 14.6871 0 6.47266Z" fill="#00AEE0"/>
</svg>
