<svg width="15" height="14" viewBox="0 0 15 14" fill="none" xmlns="http://www.w3.org/2000/svg">
<path id="Vector" d="M7.14844 1.91009L7.47363 2.26165L7.8252 1.91068C8.80664 0.954134 10.166 0.518782 11.502 0.741146C13.5205 1.07747 15 2.82415 15 4.87201V5.04193C15 6.25775 14.4961 7.42083 13.6055 8.24993L8.31152 13.1923C8.0918 13.3974 7.80176 13.5117 7.5 13.5117C7.19824 13.5117 6.9082 13.3974 6.68848 13.1923L1.39424 8.24993C0.504785 7.42083 0 6.25775 0 5.04193V4.87201C0 2.82415 1.48008 1.07747 3.49805 0.741146C4.80762 0.518782 6.19336 0.954134 7.14844 1.91009C7.14844 1.91038 7.12207 1.91009 7.14844 1.91009ZM7.47363 4.25091L6.15527 2.87982C5.51953 2.26986 4.61719 1.9804 3.72949 2.12806C2.38916 2.3516 1.40625 3.51263 1.40625 4.87201V5.04193C1.40625 5.8681 1.74932 6.65911 2.35371 7.22161L7.5 12.0263L12.6475 7.22161C13.251 6.65911 13.5938 5.8681 13.5938 5.04193V4.87201C13.5938 3.51263 12.6094 2.3516 11.2705 2.12806C10.3828 1.9804 9.48047 2.26986 8.84473 2.87982L7.47363 4.25091Z" fill="#FFA3A3"/>
</svg>
