<svg width="24" height="25" viewBox="0 0 24 25" fill="none" xmlns="http://www.w3.org/2000/svg">
<g id="heroicons-solid/sparkles">
<g id="Vector">
<path fill-rule="evenodd" clip-rule="evenodd" d="M9 5C9.33486 5 9.62915 5.22198 9.72114 5.54396L10.5343 8.39015C10.8903 9.63593 11.8641 10.6097 13.1099 10.9657L15.956 11.7789C16.278 11.8709 16.5 12.1651 16.5 12.5C16.5 12.8349 16.278 13.1291 15.956 13.2211L13.1098 14.0343C11.8641 14.3903 10.8903 15.3641 10.5343 16.6099L9.72114 19.456C9.62915 19.778 9.33486 20 9 20C8.66514 20 8.37085 19.778 8.27886 19.456L7.46566 16.6099C7.10972 15.3641 6.13593 14.3903 4.89015 14.0343L2.04396 13.2211C1.72198 13.1291 1.5 12.8349 1.5 12.5C1.5 12.1651 1.72198 11.8709 2.04396 11.7789L4.89015 10.9657C6.13593 10.6097 7.10972 9.63593 7.46566 8.39015L8.27886 5.54396C8.37085 5.22198 8.66514 5 9 5Z" fill="#0161FE"/>
<path fill-rule="evenodd" clip-rule="evenodd" d="M18 2C18.3442 2 18.6441 2.23422 18.7276 2.5681L18.9865 3.60356C19.2216 4.54406 19.9559 5.2784 20.8964 5.51353L21.9319 5.77239C22.2658 5.85586 22.5 6.15585 22.5 6.5C22.5 6.84415 22.2658 7.14414 21.9319 7.22761L20.8964 7.48647C19.9559 7.7216 19.2216 8.45594 18.9865 9.39644L18.7276 10.4319C18.6441 10.7658 18.3442 11 18 11C17.6558 11 17.3559 10.7658 17.2724 10.4319L17.0135 9.39644C16.7784 8.45594 16.0441 7.7216 15.1036 7.48647L14.0681 7.22761C13.7342 7.14414 13.5 6.84415 13.5 6.5C13.5 6.15585 13.7342 5.85586 14.0681 5.77239L15.1036 5.51353C16.0441 5.2784 16.7784 4.54406 17.0135 3.60356L17.2724 2.5681C17.3559 2.23422 17.6558 2 18 2Z" fill="#0161FE"/>
<path fill-rule="evenodd" clip-rule="evenodd" d="M16.5 15.5C16.8228 15.5 17.1094 15.7066 17.2115 16.0128L17.6058 17.1956C17.7551 17.6435 18.1065 17.9949 18.5544 18.1442L19.7372 18.5385C20.0434 18.6406 20.25 18.9272 20.25 19.25C20.25 19.5728 20.0434 19.8594 19.7372 19.9615L18.5544 20.3558C18.1065 20.5051 17.7551 20.8565 17.6058 21.3044L17.2115 22.4872C17.1094 22.7934 16.8228 23 16.5 23C16.1772 23 15.8906 22.7934 15.7885 22.4872L15.3942 21.3044C15.2449 20.8565 14.8935 20.5051 14.4456 20.3558L13.2628 19.9615C12.9566 19.8594 12.75 19.5728 12.75 19.25C12.75 18.9272 12.9566 18.6406 13.2628 18.5385L14.4456 18.1442C14.8935 17.9949 15.2449 17.6435 15.3942 17.1956L15.7885 16.0128C15.8906 15.7066 16.1772 15.5 16.5 15.5Z" fill="#0161FE"/>
</g>
</g>
</svg>
