<svg width="30" height="30" viewBox="0 0 30 30" fill="none" xmlns="http://www.w3.org/2000/svg">
<g id="heroicons-mini/plus-circle">
<path id="Subtract" fill-rule="evenodd" clip-rule="evenodd" d="M15 27C21.6274 27 27 21.6274 27 15C27 8.37258 21.6274 3 15 3C8.37258 3 3 8.37258 3 15C3 21.6274 8.37258 27 15 27ZM16.125 10.125C16.125 9.50368 15.6213 9 15 9C14.3787 9 13.875 9.50368 13.875 10.125V13.875H10.125C9.50368 13.875 9 14.3787 9 15C9 15.6213 9.50368 16.125 10.125 16.125H13.875V19.875C13.875 20.4963 14.3787 21 15 21C15.6213 21 16.125 20.4963 16.125 19.875V16.125H19.875C20.4963 16.125 21 15.6213 21 15C21 14.3787 20.4963 13.875 19.875 13.875H16.125V10.125Z" fill="#0161FE"/>
</g>
</svg>
