<svg width="24" height="25" viewBox="0 0 24 25" fill="none" xmlns="http://www.w3.org/2000/svg">
<g id="heroicons-solid/cog-6-tooth">
<path id="Subtract" fill-rule="evenodd" clip-rule="evenodd" d="M11.078 2.75C10.1614 2.75 9.37921 3.41265 9.22853 4.31675L9.04987 5.38873C9.02971 5.50964 8.93554 5.6498 8.75323 5.73747C8.40917 5.90292 8.07979 6.0938 7.76752 6.3076C7.60103 6.42159 7.43271 6.4332 7.31781 6.39015L6.29863 6.00833C5.44031 5.68678 4.47533 6.03289 4.01704 6.82666L3.09506 8.42358C2.63677 9.21736 2.81953 10.2261 3.52716 10.8087L4.36768 11.5006C4.46231 11.5785 4.53642 11.7298 4.52132 11.9307C4.50718 12.1188 4.5 12.3086 4.5 12.5C4.5 12.6915 4.50719 12.8814 4.52133 13.0695C4.53644 13.2704 4.46233 13.4217 4.3677 13.4996L3.52716 14.1916C2.81952 14.7741 2.63677 15.7829 3.09506 16.5767L4.01704 18.1736C4.47532 18.9674 5.44031 19.3135 6.29863 18.9919L7.31804 18.61C7.43293 18.567 7.60125 18.5786 7.76773 18.6925C8.07994 18.9063 8.40925 19.0971 8.75323 19.2625C8.93554 19.3502 9.02971 19.4904 9.04987 19.6113L9.22853 20.6832C9.37921 21.5874 10.1614 22.25 11.078 22.25H12.922C13.8386 22.25 14.6208 21.5874 14.7715 20.6832L14.9501 19.6113C14.9703 19.4904 15.0645 19.3502 15.2468 19.2625C15.5908 19.0971 15.9202 18.9062 16.2325 18.6924C16.399 18.5784 16.5673 18.5668 16.6822 18.6098L17.7014 18.9917C18.5597 19.3132 19.5247 18.9671 19.983 18.1733L20.9049 16.5764C21.3632 15.7826 21.1805 14.7739 20.4728 14.1913L19.6323 13.4994C19.5377 13.4215 19.4636 13.2702 19.4787 13.0693C19.4928 12.8812 19.5 12.6914 19.5 12.5C19.5 12.3085 19.4928 12.1186 19.4787 11.9305C19.4636 11.7296 19.5377 11.5783 19.6323 11.5004L20.4728 10.8084C21.1805 10.2259 21.3632 9.21711 20.9049 8.42334L19.983 6.82642C19.5247 6.03264 18.5597 5.68654 17.7014 6.00809L16.682 6.39C16.5671 6.43304 16.3987 6.42144 16.2323 6.30746C15.9201 6.09371 15.5907 5.90289 15.2468 5.73747C15.0645 5.6498 14.9703 5.50964 14.9501 5.38873L14.7715 4.31675C14.6208 3.41265 13.8386 2.75 12.922 2.75H11.078ZM12.0001 16.25C14.0712 16.25 15.7501 14.5711 15.7501 12.5C15.7501 10.4289 14.0712 8.75 12.0001 8.75C9.92905 8.75 8.25012 10.4289 8.25012 12.5C8.25012 14.5711 9.92905 16.25 12.0001 16.25Z" fill="#0161FE"/>
</g>
</svg>
